<mxfile host="drawio-plugin" modified="2023-03-15T10:07:45.004Z" agent="5.0 (X11; Linux x86_64) AppleWebKit/537.36 (KHTML, like Gecko) Chrome/98.0.4758.102 Safari/537.36" etag="k0-wQjF8hxkL80a0pVGh" version="20.5.3" type="embed"><diagram id="C5RBs43oDa-KdzZeNtuy" name="Page-1"><mxGraphModel dx="1060" dy="428" grid="1" gridSize="10" guides="1" tooltips="1" connect="1" arrows="1" fold="1" page="1" pageScale="1" pageWidth="827" pageHeight="1169" math="0" shadow="0"><root><mxCell id="WIyWlLk6GJQsqaUBKTNV-0"/><mxCell id="WIyWlLk6GJQsqaUBKTNV-1" parent="WIyWlLk6GJQsqaUBKTNV-0"/><mxCell id="oXzIRPWj1clB41x3ZmVq-0" value="notificator&#10;" style="swimlane;fontStyle=0;align=center;verticalAlign=top;childLayout=stackLayout;horizontal=1;startSize=26;horizontalStack=0;resizeParent=1;resizeLast=0;collapsible=1;marginBottom=0;rounded=0;shadow=0;strokeWidth=1;fillColor=#45A2FF;" parent="WIyWlLk6GJQsqaUBKTNV-1" vertex="1"><mxGeometry x="1250" y="212" width="160" height="216" as="geometry"><mxRectangle x="550" y="140" width="160" height="26" as="alternateBounds"/></mxGeometry></mxCell><mxCell id="oXzIRPWj1clB41x3ZmVq-1" value="Flask" style="text;align=left;verticalAlign=top;spacingLeft=4;spacingRight=4;overflow=hidden;rotatable=0;points=[[0,0.5],[1,0.5]];portConstraint=eastwest;fillColor=#45A2FF;" parent="oXzIRPWj1clB41x3ZmVq-0" vertex="1"><mxGeometry y="26" width="160" height="26" as="geometry"/></mxCell><mxCell id="oXzIRPWj1clB41x3ZmVq-6" value="" style="line;html=1;strokeWidth=1;align=left;verticalAlign=middle;spacingTop=-1;spacingLeft=3;spacingRight=3;rotatable=0;labelPosition=right;points=[];portConstraint=eastwest;" parent="oXzIRPWj1clB41x3ZmVq-0" vertex="1"><mxGeometry y="52" width="160" height="8" as="geometry"/></mxCell><mxCell id="oXzIRPWj1clB41x3ZmVq-8" value="By event" style="text;align=left;verticalAlign=top;spacingLeft=4;spacingRight=4;overflow=hidden;rotatable=0;points=[[0,0.5],[1,0.5]];portConstraint=eastwest;fillColor=#45A2FF;" parent="oXzIRPWj1clB41x3ZmVq-0" vertex="1"><mxGeometry y="60" width="160" height="26" as="geometry"/></mxCell><mxCell id="oXzIRPWj1clB41x3ZmVq-9" value="By time" style="text;align=left;verticalAlign=top;spacingLeft=4;spacingRight=4;overflow=hidden;rotatable=0;points=[[0,0.5],[1,0.5]];portConstraint=eastwest;fillColor=#66FFB3;" parent="oXzIRPWj1clB41x3ZmVq-0" vertex="1"><mxGeometry y="86" width="160" height="26" as="geometry"/></mxCell><mxCell id="oXzIRPWj1clB41x3ZmVq-10" value="Manual (admin sender)" style="text;align=left;verticalAlign=top;spacingLeft=4;spacingRight=4;overflow=hidden;rotatable=0;points=[[0,0.5],[1,0.5]];portConstraint=eastwest;fillColor=#66FFB3;" parent="oXzIRPWj1clB41x3ZmVq-0" vertex="1"><mxGeometry y="112" width="160" height="28" as="geometry"/></mxCell><mxCell id="oXzIRPWj1clB41x3ZmVq-42" value="checker notification" style="text;align=left;verticalAlign=top;spacingLeft=4;spacingRight=4;overflow=hidden;rotatable=0;points=[[0,0.5],[1,0.5]];portConstraint=eastwest;" parent="oXzIRPWj1clB41x3ZmVq-0" vertex="1"><mxGeometry y="140" width="160" height="26" as="geometry"/></mxCell><mxCell id="oXzIRPWj1clB41x3ZmVq-11" value="crontab/&lt;br&gt;apscheduler" style="rounded=0;whiteSpace=wrap;html=1;fillColor=#66FFB3;" parent="WIyWlLk6GJQsqaUBKTNV-1" vertex="1"><mxGeometry x="1654" y="290" width="120" height="60" as="geometry"/></mxCell><mxCell id="oXzIRPWj1clB41x3ZmVq-13" style="edgeStyle=orthogonalEdgeStyle;rounded=0;orthogonalLoop=1;jettySize=auto;html=1;entryX=0;entryY=0.5;entryDx=0;entryDy=0;" parent="WIyWlLk6GJQsqaUBKTNV-1" source="oXzIRPWj1clB41x3ZmVq-9" target="oXzIRPWj1clB41x3ZmVq-11" edge="1"><mxGeometry relative="1" as="geometry"/></mxCell><mxCell id="oXzIRPWj1clB41x3ZmVq-15" value="rabitmq" style="rounded=0;whiteSpace=wrap;html=1;" parent="WIyWlLk6GJQsqaUBKTNV-1" vertex="1"><mxGeometry x="1640" y="66" width="120" height="60" as="geometry"/></mxCell><mxCell id="oXzIRPWj1clB41x3ZmVq-16" style="edgeStyle=orthogonalEdgeStyle;rounded=0;orthogonalLoop=1;jettySize=auto;html=1;exitX=1;exitY=0.5;exitDx=0;exitDy=0;entryX=0;entryY=0.5;entryDx=0;entryDy=0;" parent="WIyWlLk6GJQsqaUBKTNV-1" source="J4FH4XJpbIowLXP31mT4-0" target="oXzIRPWj1clB41x3ZmVq-15" edge="1"><mxGeometry relative="1" as="geometry"/></mxCell><mxCell id="H-mmJcnQUszS6N4VdVZG-2" style="edgeStyle=orthogonalEdgeStyle;rounded=0;orthogonalLoop=1;jettySize=auto;html=1;exitX=0;exitY=0.75;exitDx=0;exitDy=0;entryX=1;entryY=0.5;entryDx=0;entryDy=0;" parent="WIyWlLk6GJQsqaUBKTNV-1" source="oXzIRPWj1clB41x3ZmVq-17" target="H-mmJcnQUszS6N4VdVZG-0" edge="1"><mxGeometry relative="1" as="geometry"/></mxCell><mxCell id="oXzIRPWj1clB41x3ZmVq-17" value="UGC Backend" style="swimlane;fontStyle=0;align=center;verticalAlign=top;childLayout=stackLayout;horizontal=1;startSize=26;horizontalStack=0;resizeParent=1;resizeLast=0;collapsible=1;marginBottom=0;rounded=0;shadow=0;strokeWidth=1;" parent="WIyWlLk6GJQsqaUBKTNV-1" vertex="1"><mxGeometry x="1920" y="40" width="160" height="100" as="geometry"><mxRectangle x="550" y="140" width="160" height="26" as="alternateBounds"/></mxGeometry></mxCell><mxCell id="oXzIRPWj1clB41x3ZmVq-18" value="FastAPI" style="text;align=left;verticalAlign=top;spacingLeft=4;spacingRight=4;overflow=hidden;rotatable=0;points=[[0,0.5],[1,0.5]];portConstraint=eastwest;" parent="oXzIRPWj1clB41x3ZmVq-17" vertex="1"><mxGeometry y="26" width="160" height="26" as="geometry"/></mxCell><mxCell id="oXzIRPWj1clB41x3ZmVq-19" value="" style="line;html=1;strokeWidth=1;align=left;verticalAlign=middle;spacingTop=-1;spacingLeft=3;spacingRight=3;rotatable=0;labelPosition=right;points=[];portConstraint=eastwest;" parent="oXzIRPWj1clB41x3ZmVq-17" vertex="1"><mxGeometry y="52" width="160" height="8" as="geometry"/></mxCell><mxCell id="oXzIRPWj1clB41x3ZmVq-22" value="Event" style="text;align=left;verticalAlign=top;spacingLeft=4;spacingRight=4;overflow=hidden;rotatable=0;points=[[0,0.5],[1,0.5]];portConstraint=eastwest;fillColor=#66FFB3;" parent="oXzIRPWj1clB41x3ZmVq-17" vertex="1"><mxGeometry y="60" width="160" height="26" as="geometry"/></mxCell><mxCell id="oXzIRPWj1clB41x3ZmVq-23" style="edgeStyle=orthogonalEdgeStyle;rounded=0;orthogonalLoop=1;jettySize=auto;html=1;exitX=0;exitY=0.5;exitDx=0;exitDy=0;entryX=1;entryY=0.5;entryDx=0;entryDy=0;" parent="WIyWlLk6GJQsqaUBKTNV-1" source="oXzIRPWj1clB41x3ZmVq-22" target="oXzIRPWj1clB41x3ZmVq-15" edge="1"><mxGeometry relative="1" as="geometry"/></mxCell><mxCell id="oXzIRPWj1clB41x3ZmVq-25" style="edgeStyle=orthogonalEdgeStyle;rounded=0;orthogonalLoop=1;jettySize=auto;html=1;exitX=1;exitY=0.5;exitDx=0;exitDy=0;shape=link;entryX=0;entryY=0;entryDx=0;entryDy=0;" parent="WIyWlLk6GJQsqaUBKTNV-1" source="oXzIRPWj1clB41x3ZmVq-36" target="oXzIRPWj1clB41x3ZmVq-0" edge="1"><mxGeometry relative="1" as="geometry"><mxPoint x="1110" y="300" as="sourcePoint"/><Array as="points"><mxPoint x="970" y="305"/><mxPoint x="1160" y="305"/><mxPoint x="1160" y="269"/><mxPoint x="1210" y="269"/><mxPoint x="1210" y="270"/><mxPoint x="1250" y="270"/></Array></mxGeometry></mxCell><mxCell id="oXzIRPWj1clB41x3ZmVq-35" value="Postgres" style="swimlane;fontStyle=0;align=center;verticalAlign=top;childLayout=stackLayout;horizontal=1;startSize=26;horizontalStack=0;resizeParent=1;resizeLast=0;collapsible=1;marginBottom=0;rounded=0;shadow=0;strokeWidth=1;fillColor=#45A2FF;" parent="WIyWlLk6GJQsqaUBKTNV-1" vertex="1"><mxGeometry x="750" y="266" width="220" height="254" as="geometry"><mxRectangle x="550" y="140" width="160" height="26" as="alternateBounds"/></mxGeometry></mxCell><mxCell id="oXzIRPWj1clB41x3ZmVq-45" value="notification_settings" style="text;align=left;verticalAlign=top;spacingLeft=4;spacingRight=4;overflow=hidden;rotatable=0;points=[[0,0.5],[1,0.5]];portConstraint=eastwest;fillColor=#45A2FF;" parent="oXzIRPWj1clB41x3ZmVq-35" vertex="1"><mxGeometry y="26" width="220" height="26" as="geometry"/></mxCell><mxCell id="oXzIRPWj1clB41x3ZmVq-44" value="" style="line;html=1;strokeWidth=1;align=left;verticalAlign=middle;spacingTop=-1;spacingLeft=3;spacingRight=3;rotatable=0;labelPosition=right;points=[];portConstraint=eastwest;" parent="oXzIRPWj1clB41x3ZmVq-35" vertex="1"><mxGeometry y="52" width="220" height="8" as="geometry"/></mxCell><mxCell id="oXzIRPWj1clB41x3ZmVq-36" value="notification" style="text;align=left;verticalAlign=top;spacingLeft=4;spacingRight=4;overflow=hidden;rotatable=0;points=[[0,0.5],[1,0.5]];portConstraint=eastwest;" parent="oXzIRPWj1clB41x3ZmVq-35" vertex="1"><mxGeometry y="60" width="220" height="26" as="geometry"/></mxCell><mxCell id="oXzIRPWj1clB41x3ZmVq-37" value="type (event, time, manual)" style="text;align=left;verticalAlign=top;spacingLeft=4;spacingRight=4;overflow=hidden;rotatable=0;points=[[0,0.5],[1,0.5]];portConstraint=eastwest;" parent="oXzIRPWj1clB41x3ZmVq-35" vertex="1"><mxGeometry y="86" width="220" height="26" as="geometry"/></mxCell><mxCell id="oXzIRPWj1clB41x3ZmVq-38" value="pattern (html path)" style="text;align=left;verticalAlign=top;spacingLeft=4;spacingRight=4;overflow=hidden;rotatable=0;points=[[0,0.5],[1,0.5]];portConstraint=eastwest;" parent="oXzIRPWj1clB41x3ZmVq-35" vertex="1"><mxGeometry y="112" width="220" height="26" as="geometry"/></mxCell><mxCell id="oXzIRPWj1clB41x3ZmVq-43" value="interval activity" style="text;align=left;verticalAlign=top;spacingLeft=4;spacingRight=4;overflow=hidden;rotatable=0;points=[[0,0.5],[1,0.5]];portConstraint=eastwest;" parent="oXzIRPWj1clB41x3ZmVq-35" vertex="1"><mxGeometry y="138" width="220" height="26" as="geometry"/></mxCell><mxCell id="oXzIRPWj1clB41x3ZmVq-46" value="settings (json):&#10;event - {type: [likes, review, ...]}&#10;time - {cron: yyyy.mm.dd.hh.mm.ss}&#10;manual - {admin_id: uuid}" style="text;align=left;verticalAlign=top;spacingLeft=4;spacingRight=4;overflow=hidden;rotatable=0;points=[[0,0.5],[1,0.5]];portConstraint=eastwest;" parent="oXzIRPWj1clB41x3ZmVq-35" vertex="1"><mxGeometry y="164" width="220" height="76" as="geometry"/></mxCell><mxCell id="oXzIRPWj1clB41x3ZmVq-41" value="&lt;code style=&quot;display: inline; box-sizing: border-box; min-width: 1.86em; padding: 0.35em 0.55em; border-radius: 4px; font-family: Menlo, &amp;quot;Ubuntu Mono&amp;quot;, consolas, source-code-pro, monospace; font-size: 0.8em; line-height: 1.86em; color: rgba(0, 0, 0, 0.85); background-color: var(--color-background-alternate); box-shadow: inset 0 0 0 1px var(--color-background-glassy-c); word-break: break-word;&quot; class=&quot;code-inline code-inline_theme_light&quot;&gt;&lt;b&gt;logs_notification_table&lt;/b&gt;&lt;br&gt;notification_id&lt;br&gt;content_id&lt;br&gt;start_time&lt;br&gt;end_time&lt;br&gt;&lt;/code&gt;" style="rounded=0;whiteSpace=wrap;html=1;fillColor=#45A2FF;" parent="WIyWlLk6GJQsqaUBKTNV-1" vertex="1"><mxGeometry x="750" y="520" width="220" height="91" as="geometry"/></mxCell><mxCell id="J4FH4XJpbIowLXP31mT4-1" style="edgeStyle=orthogonalEdgeStyle;rounded=0;orthogonalLoop=1;jettySize=auto;html=1;exitX=0.25;exitY=1;exitDx=0;exitDy=0;" parent="WIyWlLk6GJQsqaUBKTNV-1" source="J4FH4XJpbIowLXP31mT4-0" edge="1"><mxGeometry relative="1" as="geometry"><mxPoint x="1350" y="210" as="targetPoint"/></mxGeometry></mxCell><mxCell id="J4FH4XJpbIowLXP31mT4-0" value="events consumer" style="rounded=0;whiteSpace=wrap;html=1;" parent="WIyWlLk6GJQsqaUBKTNV-1" vertex="1"><mxGeometry x="1320" y="66" width="120" height="60" as="geometry"/></mxCell><mxCell id="H-mmJcnQUszS6N4VdVZG-0" value="rabitmq_dlq" style="rounded=0;whiteSpace=wrap;html=1;" parent="WIyWlLk6GJQsqaUBKTNV-1" vertex="1"><mxGeometry x="1640" y="165" width="120" height="60" as="geometry"/></mxCell><mxCell id="H-mmJcnQUszS6N4VdVZG-3" style="edgeStyle=orthogonalEdgeStyle;rounded=0;orthogonalLoop=1;jettySize=auto;html=1;exitX=1;exitY=0.5;exitDx=0;exitDy=0;entryX=0;entryY=0.5;entryDx=0;entryDy=0;" parent="WIyWlLk6GJQsqaUBKTNV-1" source="H-mmJcnQUszS6N4VdVZG-1" target="H-mmJcnQUszS6N4VdVZG-0" edge="1"><mxGeometry relative="1" as="geometry"/></mxCell><mxCell id="H-mmJcnQUszS6N4VdVZG-4" style="edgeStyle=orthogonalEdgeStyle;rounded=0;orthogonalLoop=1;jettySize=auto;html=1;exitX=0;exitY=0.5;exitDx=0;exitDy=0;entryX=0.75;entryY=0;entryDx=0;entryDy=0;" parent="WIyWlLk6GJQsqaUBKTNV-1" source="H-mmJcnQUszS6N4VdVZG-1" target="oXzIRPWj1clB41x3ZmVq-0" edge="1"><mxGeometry relative="1" as="geometry"/></mxCell><mxCell id="H-mmJcnQUszS6N4VdVZG-1" value="events consumer_dlq" style="rounded=0;whiteSpace=wrap;html=1;" parent="WIyWlLk6GJQsqaUBKTNV-1" vertex="1"><mxGeometry x="1450" y="165" width="120" height="60" as="geometry"/></mxCell></root></mxGraphModel></diagram></mxfile>